<svg xmlns="http://www.w3.org/2000/svg" xmlns:xlink="http://www.w3.org/1999/xlink" viewBox="0 0 2391.94 1380.38"><defs><clipPath id="a" transform="translate(354.4 300.38)"><rect width="1920" height="1080" transform="translate(1920 1080) rotate(180)" fill="none"/></clipPath><radialGradient id="b" cx="710.5" cy="961.7" r="783.31" gradientTransform="translate(-3096.81 -572.05) scale(3.84 2.16)" gradientUnits="userSpaceOnUse"><stop offset="0" stop-color="#ffab67"/><stop offset="0.02" stop-color="#fc946b"/><stop offset="0.1" stop-color="#f1477a"/><stop offset="0.14" stop-color="#ed2980"/><stop offset="0.23" stop-color="#df287e"/><stop offset="0.41" stop-color="#ba257a"/><stop offset="0.65" stop-color="#7f2174"/><stop offset="0.94" stop-color="#2d1a6b"/><stop offset="1" stop-color="#1d1969"/></radialGradient><linearGradient id="c" x1="1261.44" y1="790.63" x2="1329.75" y2="760.82" gradientTransform="translate(1876.96 1029.68) rotate(180)" gradientUnits="userSpaceOnUse"><stop offset="0" stop-color="#ffe139"/><stop offset="1" stop-color="#bf2786"/></linearGradient><linearGradient id="d" x1="927.43" y1="502.42" x2="1026.03" y2="502.42" gradientTransform="translate(1858.87 1088.07) rotate(-178.09)" gradientUnits="userSpaceOnUse"><stop offset="0" stop-color="#00efa9"/><stop offset="1" stop-color="#3f56f0"/></linearGradient><linearGradient id="e" x1="1052.94" y1="229.75" x2="1085.13" y2="229.75" gradientTransform="matrix(-0.99, -0.16, 0.16, -0.99, 1784.6, 1272.61)" xlink:href="#d"/><linearGradient id="f" x1="939.79" y1="881.03" x2="971.99" y2="881.03" gradientTransform="matrix(-0.99, -0.16, 0.16, -0.99, 1784.6, 1272.61)" gradientUnits="userSpaceOnUse"><stop offset="0" stop-color="#ffab67"/><stop offset="0.06" stop-color="#ff9f6c"/><stop offset="0.33" stop-color="#ff6784"/><stop offset="0.46" stop-color="#ff518d"/><stop offset="1" stop-color="#5e309d"/></linearGradient><linearGradient id="g" x1="598.51" y1="62.54" x2="691.83" y2="62.54" gradientTransform="translate(1876.96 1029.68) rotate(180)" xlink:href="#f"/><linearGradient id="h" x1="302" y1="343.58" x2="348.7" y2="343.58" gradientTransform="translate(1792.45 1276.79) rotate(-170.4)" gradientUnits="userSpaceOnUse"><stop offset="0" stop-color="#ed6ccd"/><stop offset="1" stop-color="#005184"/></linearGradient><linearGradient id="i" x1="1792.4" y1="-76.18" x2="1838.66" y2="-76.18" gradientTransform="translate(1969.01 947.04) rotate(-179.88)" xlink:href="#h"/><linearGradient id="j" x1="1754.03" y1="575.09" x2="2075.85" y2="235.58" gradientTransform="translate(2231.36 1330.05) rotate(180)" xlink:href="#h"/><linearGradient id="k" x1="715.6" y1="712.61" x2="797.1" y2="623.71" gradientTransform="translate(2231.36 1330.05) rotate(180)" gradientUnits="userSpaceOnUse"><stop offset="0" stop-color="#e86376"/><stop offset="1" stop-color="#363090"/></linearGradient><clipPath id="l" transform="translate(354.4 300.38)"><ellipse cx="1117.04" cy="365.41" rx="44.71" ry="37.72" fill="none"/></clipPath><linearGradient id="m" x1="2641.54" y1="1445.16" x2="2939.59" y2="1130.74" gradientTransform="translate(-1863.46 667.59) rotate(-30)" gradientUnits="userSpaceOnUse"><stop offset="0" stop-color="#ffab67"/><stop offset="0.05" stop-color="#fc946b"/><stop offset="0.22" stop-color="#f1477a"/><stop offset="0.3" stop-color="#ed2980"/><stop offset="0.38" stop-color="#df287e"/><stop offset="0.52" stop-color="#ba257a"/><stop offset="0.72" stop-color="#7f2174"/><stop offset="0.96" stop-color="#2d1a6b"/><stop offset="1" stop-color="#1d1969"/></linearGradient><linearGradient id="n" x1="1328.21" y1="389.11" x2="1487.78" y2="226" gradientTransform="translate(2231.36 1330.05) rotate(180)" gradientUnits="userSpaceOnUse"><stop offset="0" stop-color="#20d6de"/><stop offset="1" stop-color="#5e309d"/></linearGradient><clipPath id="o" transform="translate(354.4 300.38)"><ellipse cx="508.01" cy="682.2" rx="77.92" ry="65.75" fill="none"/></clipPath><clipPath id="p" transform="translate(354.4 300.38)"><rect width="1919.99" height="1080" transform="translate(1919.99 1080) rotate(180)" fill="none"/></clipPath><linearGradient id="q" x1="-97.63" y1="695.25" x2="2222.83" y2="695.25" gradientTransform="translate(1924.24 897.1) rotate(175.42)" xlink:href="#c"/><linearGradient id="r" x1="600.89" y1="290.52" x2="993.98" y2="1417.05" gradientTransform="translate(1924.24 897.1) rotate(175.42)" xlink:href="#c"/><linearGradient id="s" x1="-81.95" y1="776.97" x2="327.98" y2="776.97" gradientTransform="translate(1924.24 897.1) rotate(175.42)" xlink:href="#c"/><linearGradient id="t" x1="1117.23" y1="1081.75" x2="1764.84" y2="726.26" xlink:href="#c"/></defs><g style="isolation:isolate"><g clip-path="url(#a)"><rect width="1919.99" height="1080" transform="translate(2274.39 1380.38) rotate(180)" fill="url(#b)"/><path d="M641.16,286.12c311.88,55,623.16,114.48,952.24,149.42,122.85,13,251.16,22.59,363.32,17.65,7.37-.33,14.86-.74,20.2-2,7.83-1.8,9.82-5.05,11.37-8.13,14-28.08,17.86-57.35,11.34-87.29-126.05,30.84-336.19,27.95-532.56,13.21C1010.53,334.76,579,246.43,151.44,168.21,91.25,157.21,29.23,146.14-35,141.05c-15.63-1.24-33.8-1.9-41.36,1.22-4.87,2-3.77,5-2.24,7.87,8.74,16.23,29.36,45.78,75.85,60.34,39.62,12.41,122.65,8.79,169.84,11.8C329.6,232.69,489.69,259.41,641.16,286.12Z" transform="translate(354.4 300.38)" fill="#fff" opacity="0.16" style="mix-blend-mode:overlay"/><path d="M1921.1,955.05c-92.54-20.77-195.25-20.73-293.1-11.68s-192.7,26.71-288.94,40.49c-403.66,57.79-844.34,44.42-1215.71-65.09C65.06,901.58,5.17,879.93-21.45,844.92A532,532,0,0,1-62.8,961.44c34.2-.94,67.44,5.94,99.86,12.42,205.28,41,419.64,69.22,636.42,70.67,317.5,2.12,629.28-52.93,946.74-56.56,57.93-.66,116.41.44,172.76,8.37,56,7.88,108.55,22.31,161.35,35.79,12.41,3.17,25.46,6.36,39,5.77,35-1.51,52.59-28.41,40.39-47.74s-42.85-32.15-71.83-43.75C1950.69,952.57,1936.38,954.42,1921.1,955.05Z" transform="translate(354.4 300.38)" fill="#fff" opacity="0.16" style="mix-blend-mode:overlay"/><ellipse cx="1251.61" cy="507.74" rx="2.56" ry="2.16" fill="#fff" style="mix-blend-mode:overlay"/><ellipse cx="1218.76" cy="516.74" rx="1.28" ry="1.08" fill="#fff" style="mix-blend-mode:overlay"/><rect x="1187.61" y="538.69" fill="#fff" style="mix-blend-mode:overlay"/><ellipse cx="1378.22" cy="469.67" rx="2.88" ry="2.43" fill="#fff" style="mix-blend-mode:overlay"/><ellipse cx="1339.18" cy="469.67" rx="2.88" ry="2.43" fill="#fff" style="mix-blend-mode:overlay"/><rect x="1438.7" y="556.88" fill="#fff" style="mix-blend-mode:overlay"/><path d="M1032.67,237.33a1.19,1.19,0,1,1,1.18,1A1.1,1.1,0,0,1,1032.67,237.33Z" transform="translate(354.4 300.38)" fill="#fff" style="mix-blend-mode:overlay"/><path d="M1139.13,218.61c0-1.84,1.77-3.33,3.94-3.33s4,1.49,4,3.33-1.77,3.33-4,3.33S1139.13,220.45,1139.13,218.61Z" transform="translate(354.4 300.38)" fill="#fff" style="mix-blend-mode:overlay"/><ellipse cx="1449.26" cy="557.15" rx="4.16" ry="3.51" fill="#fff" style="mix-blend-mode:overlay"/><path d="M1167.82,293.09a2.11,2.11,0,1,1,2.08,1.75A1.94,1.94,0,0,1,1167.82,293.09Z" transform="translate(354.4 300.38)" fill="#fff" style="mix-blend-mode:overlay"/><path d="M1197.26,249.08a1.79,1.79,0,1,1,1.76,1.48A1.64,1.64,0,0,1,1197.26,249.08Z" transform="translate(354.4 300.38)" fill="#fff" style="mix-blend-mode:overlay"/><path d="M1151.18,170.51a1.46,1.46,0,1,1,1.44,1.21A1.34,1.34,0,0,1,1151.18,170.51Z" transform="translate(354.4 300.38)" fill="#fff" style="mix-blend-mode:overlay"/><path d="M1356,286.44a1.45,1.45,0,1,1,1.43,1.2A1.33,1.33,0,0,1,1356,286.44Z" transform="translate(354.4 300.38)" fill="#fff" style="mix-blend-mode:overlay"/><path d="M1270.86,194a1.78,1.78,0,1,1,1.76,1.49A1.64,1.64,0,0,1,1270.86,194Z" transform="translate(354.4 300.38)" fill="#fff" style="mix-blend-mode:overlay"/><path d="M1443.48,321.67a3.18,3.18,0,1,1,3.13,2.64A2.91,2.91,0,0,1,1443.48,321.67Z" transform="translate(354.4 300.38)" fill="#fff" style="mix-blend-mode:overlay"/><path d="M1507.31,288.89a2.94,2.94,0,1,1,2.9,2.44A2.71,2.71,0,0,1,1507.31,288.89Z" transform="translate(354.4 300.38)" fill="#fff" style="mix-blend-mode:overlay"/><path d="M976.14,373.27c0-2,1.94-3.64,4.32-3.64s4.32,1.63,4.32,3.64-1.93,3.65-4.32,3.65S976.14,375.29,976.14,373.27Z" transform="translate(354.4 300.38)" fill="#fff" style="mix-blend-mode:overlay"/><ellipse cx="1264.62" cy="681.62" rx="1.28" ry="1.08" fill="#fff" style="mix-blend-mode:overlay"/><ellipse cx="1500.46" cy="707.81" rx="0.96" ry="0.81" fill="#fff" style="mix-blend-mode:overlay"/><ellipse cx="1459.82" cy="730.76" rx="2.56" ry="2.16" fill="#fff" style="mix-blend-mode:overlay"/><ellipse cx="1705.9" cy="793.13" rx="1.6" ry="1.35" fill="#fff" style="mix-blend-mode:overlay"/><path d="M1279.28,508.23a.36.36,0,0,1,.71,0,.33.33,0,0,1-.35.3A.33.33,0,0,1,1279.28,508.23Z" transform="translate(354.4 300.38)" fill="#fff" style="mix-blend-mode:overlay"/><path d="M1467.14,528.88a2.86,2.86,0,1,1,2.82,2.38A2.63,2.63,0,0,1,1467.14,528.88Z" transform="translate(354.4 300.38)" fill="#fff" style="mix-blend-mode:overlay"/><path d="M1407.56,562.5a1.59,1.59,0,1,1,1.57,1.33A1.46,1.46,0,0,1,1407.56,562.5Z" transform="translate(354.4 300.38)" fill="#fff" style="mix-blend-mode:overlay"/><ellipse cx="1263.98" cy="816.08" rx="0.64" ry="0.54" fill="#fff" style="mix-blend-mode:overlay"/><path d="M849.42,540h0Z" transform="translate(354.4 300.38)" fill="#fff" style="mix-blend-mode:overlay"/><ellipse cx="1131.17" cy="816.92" rx="4.17" ry="3.52" fill="#fff" style="mix-blend-mode:overlay"/><path d="M731.53,486.32a2.86,2.86,0,1,1,2.82,2.38A2.62,2.62,0,0,1,731.53,486.32Z" transform="translate(354.4 300.38)" fill="#fff" style="mix-blend-mode:overlay"/><path d="M879.18,633.82a1.46,1.46,0,1,1,1.44,1.22A1.34,1.34,0,0,1,879.18,633.82Z" transform="translate(354.4 300.38)" fill="#fff" style="mix-blend-mode:overlay"/><ellipse cx="1271.66" cy="968.9" rx="2.56" ry="2.16" fill="#fff" style="mix-blend-mode:overlay"/><path d="M857.44,714.53a2.42,2.42,0,1,1,2.39,2A2.23,2.23,0,0,1,857.44,714.53Z" transform="translate(354.4 300.38)" fill="#fff" style="mix-blend-mode:overlay"/><ellipse cx="1165.11" cy="939.19" rx="1.59" ry="1.34" fill="#fff" style="mix-blend-mode:overlay"/><ellipse cx="1143.66" cy="1059.51" rx="2.56" ry="2.16" fill="#fff" style="mix-blend-mode:overlay"/><path d="M750.76,786a2.13,2.13,0,1,1,2.11,1.78A2,2,0,0,1,750.76,786Z" transform="translate(354.4 300.38)" fill="#fff" style="mix-blend-mode:overlay"/><path d="M944.14,773.68c0-2.47,2.37-4.47,5.29-4.47s5.29,2,5.29,4.47-2.37,4.46-5.29,4.46S944.14,776.14,944.14,773.68Z" transform="translate(354.4 300.38)" fill="#fff" style="mix-blend-mode:overlay"/><ellipse cx="1266.22" cy="1120.68" rx="2.88" ry="2.43" fill="#fff" style="mix-blend-mode:overlay"/><ellipse cx="1191.31" cy="1115.29" rx="1.63" ry="1.38" fill="#fff" style="mix-blend-mode:overlay"/><path d="M1150.52,768.85a1.47,1.47,0,1,1,1.45,1.22A1.35,1.35,0,0,1,1150.52,768.85Z" transform="translate(354.4 300.38)" fill="#fff" style="mix-blend-mode:overlay"/><ellipse cx="1458.54" cy="1071.53" rx="1.28" ry="1.08" fill="#fff" style="mix-blend-mode:overlay"/><path d="M1172.34,830.81a.44.44,0,0,1,.46-.39.43.43,0,0,1,.46.39.42.42,0,0,1-.46.39A.43.43,0,0,1,1172.34,830.81Z" transform="translate(354.4 300.38)" fill="#fff" style="mix-blend-mode:overlay"/><path d="M1295.12,735.86a3.44,3.44,0,1,1,3.39,2.86A3.16,3.16,0,0,1,1295.12,735.86Z" transform="translate(354.4 300.38)" fill="#fff" style="mix-blend-mode:overlay"/><path d="M1468.82,898.17a2.66,2.66,0,1,1,2.62,2.21A2.45,2.45,0,0,1,1468.82,898.17Z" transform="translate(354.4 300.38)" fill="#fff" style="mix-blend-mode:overlay"/><path d="M1319,966a1.4,1.4,0,1,1,1.38,1.17A1.29,1.29,0,0,1,1319,966Z" transform="translate(354.4 300.38)" fill="#fff" style="mix-blend-mode:overlay"/><path d="M1438.27,963.3a3.22,3.22,0,1,1,3.18,2.67A3,3,0,0,1,1438.27,963.3Z" transform="translate(354.4 300.38)" fill="#fff" style="mix-blend-mode:overlay"/><ellipse cx="2196.36" cy="1043.51" rx="1.6" ry="1.35" fill="#fff" style="mix-blend-mode:overlay"/><path d="M1777.21,722.07a1.84,1.84,0,1,1,1.81,1.53A1.69,1.69,0,0,1,1777.21,722.07Z" transform="translate(354.4 300.38)" fill="#fff" style="mix-blend-mode:overlay"/><ellipse cx="2095.24" cy="981.22" rx="2.88" ry="2.43" fill="#fff" style="mix-blend-mode:overlay"/><ellipse cx="2181.32" cy="958.1" rx="2.56" ry="2.16" fill="#fff" style="mix-blend-mode:overlay"/><path d="M1505,1066.58a2.27,2.27,0,1,1,2.24,1.89A2.09,2.09,0,0,1,1505,1066.58Z" transform="translate(354.4 300.38)" fill="#fff" style="mix-blend-mode:overlay"/><path d="M1427.13,1048.86a2.38,2.38,0,1,1,2.34,2A2.19,2.19,0,0,1,1427.13,1048.86Z" transform="translate(354.4 300.38)" fill="#fff" style="mix-blend-mode:overlay"/><path d="M1386.17,1044.59h0Z" transform="translate(354.4 300.38)" fill="#fff" style="mix-blend-mode:overlay"/><path d="M1317.62,1060.86A1.38,1.38,0,1,1,1319,1062,1.27,1.27,0,0,1,1317.62,1060.86Z" transform="translate(354.4 300.38)" fill="#fff" style="mix-blend-mode:overlay"/><ellipse cx="1288.41" cy="1305.95" rx="2.88" ry="2.43" fill="#fff" style="mix-blend-mode:overlay"/><path d="M856.25,1012.5a3.68,3.68,0,1,1,3.62,3.06A3.38,3.38,0,0,1,856.25,1012.5Z" transform="translate(354.4 300.38)" fill="#fff" style="mix-blend-mode:overlay"/><path d="M1042.7,938.7a2.82,2.82,0,1,1,2.77,2.34A2.58,2.58,0,0,1,1042.7,938.7Z" transform="translate(354.4 300.38)" fill="#fff" style="mix-blend-mode:overlay"/><ellipse cx="1075.18" cy="1331.24" rx="3.2" ry="2.7" fill="#fff" style="mix-blend-mode:overlay"/><ellipse cx="1930.83" cy="1100.06" rx="2.17" ry="1.83" fill="#fff" style="mix-blend-mode:overlay"/><rect x="1928.66" y="1223.99" fill="#fff" style="mix-blend-mode:overlay"/><path d="M1533.58,1021.41a2.49,2.49,0,1,1,2.45,2.07A2.29,2.29,0,0,1,1533.58,1021.41Z" transform="translate(354.4 300.38)" fill="#fff" style="mix-blend-mode:overlay"/><path d="M1114.17,987.57a1.19,1.19,0,1,1,1.17,1A1.09,1.09,0,0,1,1114.17,987.57Z" transform="translate(354.4 300.38)" fill="#fff" style="mix-blend-mode:overlay"/><path d="M879.5,900.09a1.19,1.19,0,1,1,1.17,1A1.09,1.09,0,0,1,879.5,900.09Z" transform="translate(354.4 300.38)" fill="#fff" style="mix-blend-mode:overlay"/><path d="M747.16,946.68a2.31,2.31,0,1,1,2.28,1.92A2.12,2.12,0,0,1,747.16,946.68Z" transform="translate(354.4 300.38)" fill="#fff" style="mix-blend-mode:overlay"/><path d="M692.83,888.48a1.74,1.74,0,1,1,1.71,1.44A1.59,1.59,0,0,1,692.83,888.48Z" transform="translate(354.4 300.38)" fill="#fff" style="mix-blend-mode:overlay"/><path d="M841.78,568.1a1.28,1.28,0,1,1,1.26,1.06A1.17,1.17,0,0,1,841.78,568.1Z" transform="translate(354.4 300.38)" fill="#fff" style="mix-blend-mode:overlay"/><path d="M1034.59,524.7a2.82,2.82,0,1,1,2.78,2.34A2.59,2.59,0,0,1,1034.59,524.7Z" transform="translate(354.4 300.38)" fill="#fff" style="mix-blend-mode:overlay"/><path d="M1172.19,581.67a1.84,1.84,0,1,1,1.82,1.53A1.7,1.7,0,0,1,1172.19,581.67Z" transform="translate(354.4 300.38)" fill="#fff" style="mix-blend-mode:overlay"/><ellipse cx="1663.77" cy="972.5" rx="3.84" ry="3.24" fill="#fff" style="mix-blend-mode:overlay"/><path d="M1337.53,184.86a2.38,2.38,0,1,1,2.34,2A2.19,2.19,0,0,1,1337.53,184.86Z" transform="translate(354.4 300.38)" fill="#fff" style="mix-blend-mode:overlay"/><rect x="1529.8" y="416.65" fill="#fff" style="mix-blend-mode:overlay"/><path d="M1228.3,236.88a1.73,1.73,0,1,1,1.71,1.44A1.59,1.59,0,0,1,1228.3,236.88Z" transform="translate(354.4 300.38)" fill="#fff" style="mix-blend-mode:overlay"/><path d="M1481.31,237.78a2.82,2.82,0,1,1,2.78,2.34A2.59,2.59,0,0,1,1481.31,237.78Z" transform="translate(354.4 300.38)" fill="#fff" style="mix-blend-mode:overlay"/><ellipse cx="1879.66" cy="693.5" rx="3.84" ry="3.24" fill="#fff" style="mix-blend-mode:overlay"/><path d="M1446.61,401.16a1.59,1.59,0,1,1,1.57,1.32A1.46,1.46,0,0,1,1446.61,401.16Z" transform="translate(354.4 300.38)" fill="#fff" style="mix-blend-mode:overlay"/><path d="M972.94,550a2.7,2.7,0,1,1,2.67,2.25A2.49,2.49,0,0,1,972.94,550Z" transform="translate(354.4 300.38)" fill="#fff" style="mix-blend-mode:overlay"/><path d="M1178.56,506.39a1.86,1.86,0,1,1,1.83,1.54A1.7,1.7,0,0,1,1178.56,506.39Z" transform="translate(354.4 300.38)" fill="#fff" style="mix-blend-mode:overlay"/><path d="M1207.82,931.63a2.44,2.44,0,1,1,2.41,2A2.25,2.25,0,0,1,1207.82,931.63Z" transform="translate(354.4 300.38)" fill="#fff" style="mix-blend-mode:overlay"/><ellipse cx="1390.96" cy="1149.04" rx="1.34" ry="1.13" fill="#fff" style="mix-blend-mode:overlay"/><ellipse cx="389.34" cy="1263.92" rx="2.56" ry="2.16" fill="#fff" style="mix-blend-mode:overlay"/><ellipse cx="356.48" cy="1254.92" rx="1.28" ry="1.08" fill="#fff" style="mix-blend-mode:overlay"/><rect x="325.34" y="1232.96" fill="#fff" style="mix-blend-mode:overlay"/><ellipse cx="515.95" cy="1301.99" rx="2.88" ry="2.43" fill="#fff" style="mix-blend-mode:overlay"/><ellipse cx="476.91" cy="1301.99" rx="2.88" ry="2.43" fill="#fff" style="mix-blend-mode:overlay"/><rect x="576.43" y="1214.78" fill="#fff" style="mix-blend-mode:overlay"/><path d="M170.4,933.57a1.19,1.19,0,1,0,1.18-1A1.1,1.1,0,0,0,170.4,933.57Z" transform="translate(354.4 300.38)" fill="#fff" style="mix-blend-mode:overlay"/><path d="M276.86,952.29c0,1.84,1.76,3.33,3.94,3.33s3.95-1.49,3.95-3.33S283,949,280.8,949,276.86,950.45,276.86,952.29Z" transform="translate(354.4 300.38)" fill="#fff" style="mix-blend-mode:overlay"/><ellipse cx="586.99" cy="1214.51" rx="4.16" ry="3.51" fill="#fff" style="mix-blend-mode:overlay"/><ellipse cx="662.03" cy="1178.19" rx="2.08" ry="1.76" fill="#fff" style="mix-blend-mode:overlay"/><ellipse cx="691.15" cy="1222.2" rx="1.76" ry="1.48" fill="#fff" style="mix-blend-mode:overlay"/><ellipse cx="644.75" cy="1300.77" rx="1.44" ry="1.21" fill="#fff" style="mix-blend-mode:overlay"/><path d="M493.74,884.46a1.45,1.45,0,1,0,1.43-1.2A1.33,1.33,0,0,0,493.74,884.46Z" transform="translate(354.4 300.38)" fill="#fff" style="mix-blend-mode:overlay"/><ellipse cx="764.75" cy="1277.28" rx="1.76" ry="1.49" fill="#fff" style="mix-blend-mode:overlay"/><path d="M581.21,849.24a3.17,3.17,0,1,0,3.13-2.65A2.91,2.91,0,0,0,581.21,849.24Z" transform="translate(354.4 300.38)" fill="#fff" style="mix-blend-mode:overlay"/><path d="M645,882a2.94,2.94,0,1,0,2.89-2.45A2.7,2.7,0,0,0,645,882Z" transform="translate(354.4 300.38)" fill="#fff" style="mix-blend-mode:overlay"/><ellipse cx="472.59" cy="1098" rx="4.32" ry="3.64" fill="#fff" style="mix-blend-mode:overlay"/><ellipse cx="402.35" cy="1090.04" rx="1.28" ry="1.08" fill="#fff" style="mix-blend-mode:overlay"/><ellipse cx="638.19" cy="1063.85" rx="0.96" ry="0.81" fill="#fff" style="mix-blend-mode:overlay"/><ellipse cx="597.55" cy="1040.9" rx="2.56" ry="2.16" fill="#fff" style="mix-blend-mode:overlay"/><ellipse cx="843.63" cy="978.53" rx="1.6" ry="1.35" fill="#fff" style="mix-blend-mode:overlay"/><ellipse cx="771.77" cy="963.04" rx="0.36" ry="0.3" fill="#fff" style="mix-blend-mode:overlay"/><path d="M604.87,642a2.86,2.86,0,1,0,2.82-2.38A2.62,2.62,0,0,0,604.87,642Z" transform="translate(354.4 300.38)" fill="#fff" style="mix-blend-mode:overlay"/><ellipse cx="901.26" cy="908.77" rx="1.57" ry="1.33" fill="#fff" style="mix-blend-mode:overlay"/><ellipse cx="401.71" cy="955.58" rx="0.64" ry="0.54" fill="#fff" style="mix-blend-mode:overlay"/><path d="M-12.85,630.9h0Z" transform="translate(354.4 300.38)" fill="#fff" style="mix-blend-mode:overlay"/><path d="M-89.68,654.36c0,1.94,1.87,3.52,4.18,3.52s4.17-1.58,4.17-3.52-1.87-3.52-4.17-3.52S-89.68,652.41-89.68,654.36Z" transform="translate(354.4 300.38)" fill="#fff" style="mix-blend-mode:overlay"/><path d="M-130.74,684.58a2.62,2.62,0,0,0,2.82,2.37,2.62,2.62,0,0,0,2.81-2.37,2.63,2.63,0,0,0-2.81-2.38A2.63,2.63,0,0,0-130.74,684.58Z" transform="translate(354.4 300.38)" fill="#fff" style="mix-blend-mode:overlay"/><ellipse cx="372.75" cy="837.45" rx="1.44" ry="1.22" fill="#fff" style="mix-blend-mode:overlay"/><ellipse cx="409.39" cy="802.76" rx="2.56" ry="2.16" fill="#fff" style="mix-blend-mode:overlay"/><ellipse cx="351.96" cy="756.75" rx="2.39" ry="2.02" fill="#fff" style="mix-blend-mode:overlay"/><ellipse cx="302.84" cy="832.46" rx="1.59" ry="1.34" fill="#fff" style="mix-blend-mode:overlay"/><ellipse cx="773.71" cy="1133.5" rx="2.56" ry="2.16" fill="#fff" style="mix-blend-mode:overlay"/><ellipse cx="737.31" cy="1106.65" rx="2.11" ry="1.78" fill="#fff" style="mix-blend-mode:overlay"/><path d="M81.87,397.23c0,2.46,2.37,4.46,5.29,4.46s5.29-2,5.29-4.46-2.37-4.47-5.29-4.47S81.87,394.76,81.87,397.23Z" transform="translate(354.4 300.38)" fill="#fff" style="mix-blend-mode:overlay"/><ellipse cx="403.95" cy="650.98" rx="2.88" ry="2.43" fill="#fff" style="mix-blend-mode:overlay"/><path d="M465.33,777.34A1.65,1.65,0,1,0,467,776,1.52,1.52,0,0,0,465.33,777.34Z" transform="translate(354.4 300.38)" fill="#fff" style="mix-blend-mode:overlay"/><path d="M288.25,402.06a1.47,1.47,0,1,0,1.45-1.23A1.35,1.35,0,0,0,288.25,402.06Z" transform="translate(354.4 300.38)" fill="#fff" style="mix-blend-mode:overlay"/><ellipse cx="596.27" cy="700.13" rx="1.28" ry="1.08" fill="#fff" style="mix-blend-mode:overlay"/><path d="M310.07,340.09a.47.47,0,0,0,.92,0,.47.47,0,0,0-.92,0Z" transform="translate(354.4 300.38)" fill="#fff" style="mix-blend-mode:overlay"/><path d="M432.85,435a3.44,3.44,0,1,0,3.39-2.86A3.16,3.16,0,0,0,432.85,435Z" transform="translate(354.4 300.38)" fill="#fff" style="mix-blend-mode:overlay"/><path d="M606.55,272.73a2.66,2.66,0,1,0,2.62-2.21A2.45,2.45,0,0,0,606.55,272.73Z" transform="translate(354.4 300.38)" fill="#fff" style="mix-blend-mode:overlay"/><path d="M456.68,204.93a1.4,1.4,0,0,0,2.76,0,1.4,1.4,0,0,0-2.76,0Z" transform="translate(354.4 300.38)" fill="#fff" style="mix-blend-mode:overlay"/><path d="M576,207.61a3.22,3.22,0,1,0,3.18-2.68A3,3,0,0,0,576,207.61Z" transform="translate(354.4 300.38)" fill="#fff" style="mix-blend-mode:overlay"/><path d="M914.94,448.83a1.84,1.84,0,1,0,1.81-1.53A1.68,1.68,0,0,0,914.94,448.83Z" transform="translate(354.4 300.38)" fill="#fff" style="mix-blend-mode:overlay"/><ellipse cx="1232.96" cy="790.43" rx="2.88" ry="2.43" fill="#fff" style="mix-blend-mode:overlay"/><path d="M642.73,104.32a2.27,2.27,0,1,0,2.24-1.88A2.08,2.08,0,0,0,642.73,104.32Z" transform="translate(354.4 300.38)" fill="#fff" style="mix-blend-mode:overlay"/><path d="M564.86,122a2.38,2.38,0,1,0,2.34-2A2.18,2.18,0,0,0,564.86,122Z" transform="translate(354.4 300.38)" fill="#fff" style="mix-blend-mode:overlay"/><path d="M523.9,126.32h0Z" transform="translate(354.4 300.38)" fill="#fff" style="mix-blend-mode:overlay"/><path d="M455.35,110.05a1.37,1.37,0,1,0,1.35-1.15A1.26,1.26,0,0,0,455.35,110.05Z" transform="translate(354.4 300.38)" fill="#fff" style="mix-blend-mode:overlay"/><ellipse cx="426.14" cy="465.71" rx="2.88" ry="2.43" fill="#fff" style="mix-blend-mode:overlay"/><path d="M-6,158.4a3.38,3.38,0,0,0,3.62,3.06,3.38,3.38,0,0,0,3.63-3.06,3.38,3.38,0,0,0-3.63-3.06A3.38,3.38,0,0,0-6,158.4Z" transform="translate(354.4 300.38)" fill="#fff" style="mix-blend-mode:overlay"/><path d="M180.43,232.2a2.82,2.82,0,1,0,2.77-2.34A2.58,2.58,0,0,0,180.43,232.2Z" transform="translate(354.4 300.38)" fill="#fff" style="mix-blend-mode:overlay"/><ellipse cx="705.23" cy="861.77" rx="3.2" ry="2.7" fill="#fff" style="mix-blend-mode:overlay"/><path d="M712,371.21a2.2,2.2,0,1,0,2.16-1.83A2,2,0,0,0,712,371.21Z" transform="translate(354.4 300.38)" fill="#fff" style="mix-blend-mode:overlay"/><rect x="1066.39" y="547.66" fill="#fff" style="mix-blend-mode:overlay"/><path d="M671.31,149.49a2.49,2.49,0,1,0,2.45-2.07A2.28,2.28,0,0,0,671.31,149.49Z" transform="translate(354.4 300.38)" fill="#fff" style="mix-blend-mode:overlay"/><path d="M251.9,183.33a1.19,1.19,0,1,0,1.17-1A1.09,1.09,0,0,0,251.9,183.33Z" transform="translate(354.4 300.38)" fill="#fff" style="mix-blend-mode:overlay"/><path d="M17.23,270.81a1.19,1.19,0,1,0,1.17-1A1.09,1.09,0,0,0,17.23,270.81Z" transform="translate(354.4 300.38)" fill="#fff" style="mix-blend-mode:overlay"/><path d="M377.2,645.58a2.31,2.31,0,1,0,2.28-1.92A2.13,2.13,0,0,0,377.2,645.58Z" transform="translate(354.4 300.38)" fill="#fff" style="mix-blend-mode:overlay"/><path d="M322.88,703.78a1.73,1.73,0,0,0,3.41,0,1.73,1.73,0,0,0-3.41,0Z" transform="translate(354.4 300.38)" fill="#fff" style="mix-blend-mode:overlay"/><path d="M-20.49,602.81a1.17,1.17,0,0,0,1.26,1.06A1.17,1.17,0,0,0-18,602.81a1.18,1.18,0,0,0-1.26-1.07A1.17,1.17,0,0,0-20.49,602.81Z" transform="translate(354.4 300.38)" fill="#fff" style="mix-blend-mode:overlay"/><path d="M172.32,646.2a2.82,2.82,0,1,0,2.78-2.34A2.58,2.58,0,0,0,172.32,646.2Z" transform="translate(354.4 300.38)" fill="#fff" style="mix-blend-mode:overlay"/><path d="M309.92,589.23a1.84,1.84,0,1,0,1.82-1.53A1.69,1.69,0,0,0,309.92,589.23Z" transform="translate(354.4 300.38)" fill="#fff" style="mix-blend-mode:overlay"/><ellipse cx="801.5" cy="799.16" rx="3.84" ry="3.24" fill="#fff" style="mix-blend-mode:overlay"/><path d="M475.26,986a2.38,2.38,0,1,0,2.34-2A2.18,2.18,0,0,0,475.26,986Z" transform="translate(354.4 300.38)" fill="#fff" style="mix-blend-mode:overlay"/><rect x="667.52" y="1355" fill="#fff" style="mix-blend-mode:overlay"/><path d="M366,934a1.73,1.73,0,1,0,1.71-1.44A1.59,1.59,0,0,0,366,934Z" transform="translate(354.4 300.38)" fill="#fff" style="mix-blend-mode:overlay"/><path d="M619,933.12a2.82,2.82,0,1,0,2.78-2.34A2.58,2.58,0,0,0,619,933.12Z" transform="translate(354.4 300.38)" fill="#fff" style="mix-blend-mode:overlay"/><ellipse cx="1017.39" cy="1078.16" rx="3.84" ry="3.24" fill="#fff" style="mix-blend-mode:overlay"/><ellipse cx="940.31" cy="1070.12" rx="1.57" ry="1.32" fill="#fff" style="mix-blend-mode:overlay"/><path d="M110.67,620.91a2.7,2.7,0,1,0,2.67-2.25A2.48,2.48,0,0,0,110.67,620.91Z" transform="translate(354.4 300.38)" fill="#fff" style="mix-blend-mode:overlay"/><ellipse cx="672.52" cy="964.89" rx="1.83" ry="1.54" fill="#fff" style="mix-blend-mode:overlay"/><ellipse cx="702.36" cy="539.65" rx="2.41" ry="2.03" fill="#fff" style="mix-blend-mode:overlay"/><ellipse cx="528.69" cy="622.62" rx="1.34" ry="1.13" fill="#fff" style="mix-blend-mode:overlay"/><ellipse cx="1007.2" cy="871.48" rx="1.44" ry="1.22" fill="#fff" style="mix-blend-mode:overlay"/><ellipse cx="1043.84" cy="836.78" rx="2.56" ry="2.16" fill="#fff" style="mix-blend-mode:overlay"/><path d="M629.62,490.4a2.42,2.42,0,1,0,2.39-2A2.22,2.22,0,0,0,629.62,490.4Z" transform="translate(354.4 300.38)" fill="#fff" style="mix-blend-mode:overlay"/><path d="M581.3,566.11a1.61,1.61,0,1,0,1.59-1.34A1.49,1.49,0,0,0,581.3,566.11Z" transform="translate(354.4 300.38)" fill="#fff" style="mix-blend-mode:overlay"/><ellipse cx="915.84" cy="746.17" rx="2.56" ry="2.16" fill="#fff" style="mix-blend-mode:overlay"/><ellipse cx="879.45" cy="719.32" rx="2.11" ry="1.78" fill="#fff" style="mix-blend-mode:overlay"/><ellipse cx="1076.01" cy="731.63" rx="5.29" ry="4.46" fill="#fff" style="mix-blend-mode:overlay"/><ellipse cx="1038.4" cy="685" rx="2.88" ry="2.43" fill="#fff" style="mix-blend-mode:overlay"/><path d="M607.46,390a1.65,1.65,0,1,0,1.63-1.37A1.52,1.52,0,0,0,607.46,390Z" transform="translate(354.4 300.38)" fill="#fff" style="mix-blend-mode:overlay"/><ellipse cx="1230.72" cy="734.15" rx="1.28" ry="1.08" fill="#fff" style="mix-blend-mode:overlay"/><ellipse cx="1060.59" cy="499.73" rx="2.88" ry="2.43" fill="#fff" style="mix-blend-mode:overlay"/><path d="M628.43,192.43a3.68,3.68,0,1,0,3.63-3.06A3.38,3.38,0,0,0,628.43,192.43Z" transform="translate(354.4 300.38)" fill="#fff" style="mix-blend-mode:overlay"/><path d="M814.88,266.23a2.82,2.82,0,1,0,2.78-2.34A2.59,2.59,0,0,0,814.88,266.23Z" transform="translate(354.4 300.38)" fill="#fff" style="mix-blend-mode:overlay"/><ellipse cx="847.36" cy="474.44" rx="3.2" ry="2.7" fill="#fff" style="mix-blend-mode:overlay"/><path d="M651.68,304.84a1.19,1.19,0,1,0,1.18-1A1.1,1.1,0,0,0,651.68,304.84Z" transform="translate(354.4 300.38)" fill="#fff" style="mix-blend-mode:overlay"/><path d="M519.34,258.25a2.31,2.31,0,1,0,2.28-1.92A2.13,2.13,0,0,0,519.34,258.25Z" transform="translate(354.4 300.38)" fill="#fff" style="mix-blend-mode:overlay"/><ellipse cx="821.12" cy="616.82" rx="1.71" ry="1.44" fill="#fff" style="mix-blend-mode:overlay"/><ellipse cx="1163.14" cy="656.64" rx="1.34" ry="1.13" fill="#fff" style="mix-blend-mode:overlay"/><path d="M540.86,275.37c5.88-1.87,11.68-4.35,18-4.43,1.6,0,3.31.07,4.68-.63,1.58-.79,2.26-2.39,3.23-3.71,2.94-4,8.82-5.71,14.31-6.7s11.36-1.68,15.71-4.66,6.11-9.28,1.84-12.35c-2.86-2-7.26-1.84-10.61-.41s-5.93,3.83-8.6,6.06A99.54,99.54,0,0,1,553.68,264C542.5,268.65,392,338.14,361.62,353.15,428,322,510.74,284.93,540.86,275.37Z" transform="translate(354.4 300.38)" fill="url(#c)"/><path d="M925.73,542.31a13.94,13.94,0,0,0,2.91-1.47c.76-.55,1.36-1.25,2.14-1.79a12.93,12.93,0,0,1,3.49-1.46l8.19-2.51c2.24-.69,4.6-1.45,6.08-3s1.58-4.26-.42-5.36-4.84,0-6.86,1.27c-3.79,2.32-7.32,4.93-11,7.36-5.93,3.92-12.26,7.38-18.57,10.84l-20.62,11.28q-20.88,11.44-41.78,22.87c11.14-6.09,23.15-11.2,34.35-17.28C897.29,555.61,911.12,548.35,925.73,542.31Z" transform="translate(354.4 300.38)" fill="url(#d)"/><path d="M776.16,869.26a4.87,4.87,0,0,0,1-.37c.27-.15.5-.35.78-.5a4.67,4.67,0,0,1,1.19-.34l2.75-.52a4.64,4.64,0,0,0,2.1-.75,1.11,1.11,0,0,0,.14-1.74,2.43,2.43,0,0,0-2.27.16c-1.33.62-2.59,1.33-3.9,2-2.1,1.05-4.3,1.93-6.5,2.82l-7.18,2.89-14.54,5.86c3.87-1.56,8-2.78,11.88-4.33A150,150,0,0,1,776.16,869.26Z" transform="translate(354.4 300.38)" fill="url(#e)"/><path d="M993.83,245.07a4.87,4.87,0,0,0,1-.37c.27-.15.5-.35.77-.5a4.67,4.67,0,0,1,1.19-.34l2.76-.52a4.57,4.57,0,0,0,2.1-.76,1.1,1.1,0,0,0,.13-1.73,2.41,2.41,0,0,0-2.26.16c-1.33.61-2.6,1.33-3.9,2-2.1,1-4.3,1.93-6.5,2.82L982,248.7l-14.55,5.86c3.88-1.56,8-2.78,11.89-4.33A149.07,149.07,0,0,1,993.83,245.07Z" transform="translate(354.4 300.38)" fill="url(#f)"/><path d="M1239.56,962.69c3-1.51,6.21-3.06,9.73-3.28,3.13-.2,6.71.59,9.13-1.1,1.73-1.21,3.3-3.67,5.29-2.8,0-2,2.94-2.81,5.21-3.35a28.8,28.8,0,0,0,9.52-4.14c.14-1.28-1.45-2.31-3-2.33a8.76,8.76,0,0,0-4.19,1.35,88.45,88.45,0,0,0-8.13,5,26.43,26.43,0,0,1-2.53,1.61,25.64,25.64,0,0,1-4,1.58c-25.42,8.72-48.33,21.13-71.46,33.41,7.25-4.58,15.71-6.58,23.53-10.48Z" transform="translate(354.4 300.38)" fill="url(#g)"/><path d="M1534.18,882.06a66.27,66.27,0,0,1,9.7-2.47,34.34,34.34,0,0,1,5.27-.39c1.77,0,4.08-.16,4.5-1.61.31-1.07-.87-2.14-2.16-2.28a5.05,5.05,0,0,0-3.51,1.19,5.67,5.67,0,0,1-1.24.85c-.91.37-2,.14-3,.36-1.2.27-2,1.16-3.08,1.71a16.51,16.51,0,0,1-4.32,1.1,33.1,33.1,0,0,0-4.48,1.37l-28,10C1514.06,888.76,1524,885.2,1534.18,882.06Z" transform="translate(354.4 300.38)" fill="url(#h)"/><path d="M158.13,1017a63.25,63.25,0,0,1,9.09-3.78,32.63,32.63,0,0,1,5.12-1.11c1.75-.24,4-.73,4.13-2.22.1-1.09-1.28-2-2.58-2a4.75,4.75,0,0,0-3.22,1.66,4.9,4.9,0,0,1-1.07,1c-.82.49-1.93.42-2.85.77-1.12.43-1.77,1.43-2.7,2.11a15.66,15.66,0,0,1-4,1.69,31.57,31.57,0,0,0-4.15,2l-25.69,13.72C139.59,1026.4,148.72,1021.51,158.13,1017Z" transform="translate(354.4 300.38)" fill="url(#i)"/><path d="M1845.73,717.15a3.74,3.74,0,0,0,1.22-1.54c.38-1.18-.59-2.37-.6-3.59,0-2.46,3.39-3.65,5.87-4.92,4.08-2.1,6.69-6.08,6.63-10.11q-10.39,0-20.75.83c-5.63.42-11.24,1-16.85,1.58l-6.54.68c-2.23.24-4.47.47-6.7.76A128.06,128.06,0,0,0,1772,711c-4.17,1.89-8.23,4-12.66,5.39-4,1.25-8.18,1.9-12.22,3-11.61,3.1-21.43,9.6-31,16-1.22.82-2.51,1.73-2.84,3-.18.66-.07,1.36-.24,2-.65,2.54-4.65,3.11-6.84,5a9.57,9.57,0,0,0-2.5,4.07l-4.65,11.79c25.23,5,53,0,73.59-13.26a25.81,25.81,0,0,1,6.06-3.26c1.78-.56,3.69-.71,5.52-1.11,8-1.74,13.45-7.8,20.23-11.8,3.26-1.92,6.88-3.38,10.13-5.33a31,31,0,0,0,11.48-11.82c-5.65-.64-11.37-1.28-17-.78s-11.39,2.29-15.26,5.82a80,80,0,0,0-25,4.25c-10.25,3.52-19.33,9.06-29.17,13.34,11.92,5.43,28.09,3.1,37.18-5.38a33,33,0,0,1-17.79,5.27,2.85,2.85,0,0,1-1.63-.32c-1.35-.92.4-2.61,1.95-3.27l11.51-4.85a40.85,40.85,0,0,1,9-3c3.13-.55,6.36-.4,9.54-.63a39.61,39.61,0,0,0,12.77-3.06c3-1.29,6.77-3,9.52-1.28a160.87,160.87,0,0,1-39.72,23,23.38,23.38,0,0,0-4.87,2.37c-1.07.74-2,1.66-3,2.47-3.67,3-8.69,4.39-13.52,5.72-10.37,2.85-21,5.74-31.92,5.09-2.89-.18-6.54-1.36-6.38-3.8a4.56,4.56,0,0,1,1.26-2.41c12.87-15.8,32.08-27.35,52.75-35.31s42.89-12.59,65.07-16.78a4.51,4.51,0,0,1,2.6,0c1.36.59,1.5,2.31,2.8,3s2.65.1,4,.11a5.18,5.18,0,0,1,4.86,6c-.53,2.72-2.83,4.92-5.08,6.91-26.93,23.8-61,41.77-98.22,51.72,30.67-6.95,59.55-19.29,84-36.39A202,202,0,0,0,1845.73,717.15Z" transform="translate(354.4 300.38)" fill="#fff" opacity="0.22" style="mix-blend-mode:soft-light"/><path d="M1125,670.82c10.61,2.42,21.66,3.08,32.62,3.71a23.39,23.39,0,0,0,6.48-.23,14.82,14.82,0,0,0,7.28-4.39,20.4,20.4,0,0,0,4.51-22.15c-.68-1.58-1.57-3.29-.91-4.87.5-1.22,1.8-2,2.72-3.08,3.24-3.68,1-8.9-1.64-12.91a106.59,106.59,0,0,0-24.14-25.68c-9-6.9-19.15-12.6-29.27-18.27a107,107,0,0,0-16-7.84,59.24,59.24,0,0,0-20.07-3.43c-8.38,0-17.37,2.2-22.34,7.89-3.75,4.3-4.64,10-3.68,15.28s3.57,10.23,6.29,15c8.15,14.4,18.25,28.93,34.45,37.16a85.1,85.1,0,0,0,16.57,6.07c6.42,1.72,13.64,3,19.7.46,8.2-3.36,11-12.6,8.48-20s-9-13.31-15.48-18.71a100.55,100.55,0,0,0-13-9.51,29.31,29.31,0,0,0-11.4-4.27c-4.17-.48-8.75.52-11.45,3.23a9.27,9.27,0,0,0-1.35,10.79c1.74,3.51,5.13,6.26,8.82,8.46,2,1.19,4.78,2.24,6.73,1-2.54,2.9,1.2,7.54,5.47,7.3a7.48,7.48,0,0,0,7-7.71c-.31-3.6-3.24-6.72-6.74-8.79-2.73-1.62-7.56-2.17-8.52.52-.7,2,1.54,3.77,3.54,5-5,1.89-11.58-.81-12.91-5.26s3-9.47,8.39-9.81c5.24-.32,9.7,3,13.48,6.09,6.52,5.34,13.08,10.72,18.27,17,2.07,2.51,4,5.32,4,8.38,0,5.26-5.89,9.51-12,10.28s-12.36-1.16-17.88-3.6c-23.88-10.53-40.72-31.68-43.25-54.32-.21-1.89-.24-4,1.3-5.42,2.5-2.28,7.13-1,10.47-2.33,1.48-.58,2.63-1.64,4-2.33,3.65-1.77,8.25-.75,12.23.42,29.88,8.74,58.39,24.14,73.77,47.46a9.58,9.58,0,0,0-1.58,13.74c-2.25,2.64.19,6.19,1,9.37,1.67,6.34-4,12.82-11.09,15.27s-15.22,1.74-22.71.27c1.12-.13,1.41,1.5.47,2a4.38,4.38,0,0,1-3.26-.06A121.75,121.75,0,0,1,1096,650.7c.25,1.86-2.31,3.27-4.51,3s-4-1.52-5.67-2.75l-16.37-12.17C1086.29,651.36,1102.45,665.68,1125,670.82Z" transform="translate(354.4 300.38)" fill="#fff" opacity="0.22" style="mix-blend-mode:soft-light"/><ellipse cx="269.54" cy="974.17" rx="261.33" ry="220.5" fill="url(#j)"/><path d="M99.31,753c-1.6,1.26-3.69,2.43-5.84,2.05-3-.52-4.14-3.49-4.67-6a87.81,87.81,0,0,1,1.78-43.54c1-3.46,2.38-7,5.3-9.59a4.29,4.29,0,0,0,1.5-1.75c.57-1.9-2.38-3-4.66-3.39l.44,2.24-8.38-2.22c3.35,5,.54,12.15-5.67,14.45,2.56,1.48,2.06,4.81.7,7.17s-3.36,4.73-2.87,7.32c.22,1.17.94,2.33.59,3.47a5,5,0,0,1-2.4,2.32l-10,6.07c4.59-.82,9.67.91,12.31,4.19-7.36.83-12.38,6.51-16.53,11.71,3.73-1.26,7.6-2.53,11.61-2.33s8.17,2.32,9,5.63a15,15,0,0,0-5.46,3.6l5.94-.82a25.4,25.4,0,0,0-8.42,18.06,19.88,19.88,0,0,1,9.74-8.58c6-2.57,13.38-2.75,18.56-6.34,6.33-4.4,8.42-12.45,8.63-18.88C108.57,744.06,103.82,749.49,99.31,753Z" transform="translate(354.4 300.38)" opacity="0.6" style="mix-blend-mode:soft-light"/><path d="M111.1,702.89a10.37,10.37,0,0,0-1.8-4.46,8.08,8.08,0,0,0-6.44-2.76,7.89,7.89,0,0,0-6.19,3.15c2.76-1.77,7-.66,9.2,1.63s2.72,5.35,3,8.27A70.49,70.49,0,0,1,105.37,739c1-2.84,3-5.47,4-8.35a50.58,50.58,0,0,0,2-7.79A51.56,51.56,0,0,0,111.1,702.89Z" transform="translate(354.4 300.38)" opacity="0.6" style="mix-blend-mode:soft-light"/><path d="M107.61,692.49a22.42,22.42,0,0,0-3.69-.65,14,14,0,0,1-7.54-3.67,21.17,21.17,0,0,0,5,2,16.06,16.06,0,0,1-6.21-10.66,89.08,89.08,0,0,0,12.09,9.76,11,11,0,0,1-.49-7.78,20.06,20.06,0,0,0,1,6.27,12.07,12.07,0,0,1,3.67-3.54,17.92,17.92,0,0,0-.95,5.29,6.39,6.39,0,0,0,2.25,4.87,4.32,4.32,0,0,1,.71.63,2.36,2.36,0,0,1,.39,1,28,28,0,0,1,.4,9.36C113.25,701.37,112.94,694.3,107.61,692.49Z" transform="translate(354.4 300.38)" fill="#fff" opacity="0.46" style="mix-blend-mode:soft-light"/><path d="M92.64,567.3c-2.73-.47-4.63-2.52-6.15-4.5a55.26,55.26,0,0,1-11.12-26.7c-.77,6.6,1.67,13.2,5,19.21,1,1.87,2,4.45.11,5.74l1.9.49c-.17,1.78-.33,3.56-.5,5.34a1.52,1.52,0,0,0,.11.92c.83,1.41,4.28-.56,5,.88a14.58,14.58,0,0,0-3,9.85,17.9,17.9,0,0,1,9.53-7.95,45.61,45.61,0,0,0,.78,7.72c.47-3.33,3.06-6.14,4.61-9.24,1.38-2.77,1.86-7.22-1.66-9C96.81,562.66,99.14,568.41,92.64,567.3Z" transform="translate(354.4 300.38)" opacity="0.6" style="mix-blend-mode:soft-light"/><path d="M83.46,539.16a5.68,5.68,0,0,0-2.56-1.65c-1-.25-2.37.11-2.7,1,.61-1.62,3-2.54,4.88-1.86a6.43,6.43,0,0,1,2.15,1.49,28.64,28.64,0,0,1,9,17.39,7.81,7.81,0,0,0-2-3.85,22.21,22.21,0,0,1-2.44-4A37,37,0,0,0,83.46,539.16Z" transform="translate(354.4 300.38)" opacity="0.6" style="mix-blend-mode:soft-light"/><path d="M81.18,533.88a5.7,5.7,0,0,0-4.38-.57c-1.91.75-2.26,2.88-2.35,4.65l-3,1.35a.6.6,0,0,0,.45-.94,1.12,1.12,0,0,0-1.3-.16c.15-.21-.08-.5-.37-.57a1.7,1.7,0,0,0-.86.1l-3.15.9a15.68,15.68,0,0,1,4-2.16,23.38,23.38,0,0,1-7.41-2.58,22.25,22.25,0,0,0,5.93-.86,14.4,14.4,0,0,1-5.82-7.32c2.24,2,5.39,3.2,8.52,4.1a57.63,57.63,0,0,1,9.24,3c5.09,2.45,8.53,6.78,11.3,11-1.44-1.81-3.28-3.37-4.82-5.13A19.23,19.23,0,0,0,81.18,533.88Z" transform="translate(354.4 300.38)" fill="#fff" opacity="0.46" style="mix-blend-mode:soft-light"/><path d="M155.61,653.56a3.78,3.78,0,0,1-3.44,1.41,4.73,4.73,0,0,1-2.82-1.91,14.91,14.91,0,0,1-3-6.07,26.12,26.12,0,0,0,1.42,6.75,10.47,10.47,0,0,0,4.73,5.45c1.31.69,3.17,1,4.33.16a3.37,3.37,0,0,0,1.09-2.06c.84-3.71,1.21-9.45-1.19-12.81C155.76,647.39,157.78,650.78,155.61,653.56Z" transform="translate(354.4 300.38)" opacity="0.6" style="mix-blend-mode:soft-light"/><path d="M150.3,630a5,5,0,0,0-2.11-1.79,2.37,2.37,0,0,0-2.69.53,5.3,5.3,0,0,1,1.29-1.74,2.43,2.43,0,0,1,2.26-.41,2.76,2.76,0,0,1,1,.84c2.69,3.18,5.34,8.23,4.61,12.22a19.79,19.79,0,0,1-1.28-3.9A20,20,0,0,0,150.3,630Z" transform="translate(354.4 300.38)" opacity="0.6" style="mix-blend-mode:soft-light"/><path d="M144.05,629.35c-.25,3.7-.34,7.41-.27,11.11a16.47,16.47,0,0,1-4.54.43l2.26-1.38c.15-.09.32-.21.33-.37s-.28-.36-.53-.44L137,637.34a7.58,7.58,0,0,0,3.25-.87,1.76,1.76,0,0,0,.71-2.55,6.18,6.18,0,0,1-2.65-1.12c.71-.26,1.81.26,2.18-.32.48-.75-1.55-1.29-1.28-2.12.59.69,2,.13,2.37-.66s.34-1.72.89-2.44c.17-.22.41-.43.43-.7a1.08,1.08,0,0,0-.32-.66l-3.14-3.85a7.81,7.81,0,0,0,3.48,2.9,17.8,17.8,0,0,1-2.37-6.89,9.47,9.47,0,0,0,3.39,4.27,23.75,23.75,0,0,0,3.84,1.44c1.26.48,3,1.54,2.79,2.87-1.06-.44-1.79-1.62-3.08-1.77C144.68,624.55,144.15,627.71,144.05,629.35Z" transform="translate(354.4 300.38)" fill="#fff" opacity="0.46" style="mix-blend-mode:soft-light"/><path d="M149.59,659a18,18,0,0,1-2.9-4.15,19.83,19.83,0,0,0-2.83,1l2.25.15c-.77.86-1.53,1.72-2.3,2.57a7.32,7.32,0,0,0-1.8,2.76,8.34,8.34,0,0,1,2.85-1.58,17.89,17.89,0,0,0-2,7.84,20.5,20.5,0,0,1,9.13-6.26c-.46,1-.93,2.1-1.4,3.15.67-1.51,2.71-2.34,3.78-3.54-.63-.17-1.36,0-2-.16A6.6,6.6,0,0,1,149.59,659Z" transform="translate(354.4 300.38)" opacity="0.6" style="mix-blend-mode:soft-light"/><path d="M75,819.67c-.47.68-.89,1.52-.46,2.21A1.88,1.88,0,0,1,72,820.43a4.22,4.22,0,0,1,1.38-2.81,33.12,33.12,0,0,1,6.23-6,14.38,14.38,0,0,1,8.08-2.73c3.1,0,3.48,2.07.45,2.48A19.86,19.86,0,0,0,75,819.67Z" transform="translate(354.4 300.38)" opacity="0.6" style="mix-blend-mode:soft-light"/><path d="M58.35,640.83a4.49,4.49,0,0,1-3.81-.66,8.59,8.59,0,0,1-2.37-2.77c-2.29-3.81-3.74-8.09-3.17-12.33a2.57,2.57,0,0,1,.74-1.71,2.93,2.93,0,0,1,3.1-.11A6.72,6.72,0,0,1,55,625.41a8.67,8.67,0,0,0-4.22-4,5,5,0,0,0-2.37-.55c-2.13.14-3.31,2.17-3.69,3.94-1,4.81.62,9.87,3.77,14,2,2.64,5.15,5.12,8.88,5a2.91,2.91,0,0,0,1.32-.3,2.34,2.34,0,0,0,1-1.83,26.36,26.36,0,0,0,.29-2.94A2.26,2.26,0,0,1,58.35,640.83Z" transform="translate(354.4 300.38)" opacity="0.6" style="mix-blend-mode:soft-light"/><path d="M122.49,577.93a1.77,1.77,0,0,0-.33,1.13,6.53,6.53,0,0,0,3.09,5.77,2.56,2.56,0,0,0,1.42.44c.52,0,1-.4,1-.83a3.67,3.67,0,0,1,.42,1.78,1.51,1.51,0,0,1-1.25,1.34,2.37,2.37,0,0,1-1-.09,7.78,7.78,0,0,1-4.83-3.69,9.49,9.49,0,0,1-1.05-5.52,2.6,2.6,0,0,1,.92-2,2.78,2.78,0,0,1,2.47-.14,6.11,6.11,0,0,1,2.61,2.27C125,578.14,123.54,576.74,122.49,577.93Z" transform="translate(354.4 300.38)" opacity="0.6" style="mix-blend-mode:soft-light"/><path d="M47,523.86a4.76,4.76,0,0,1-2.29-.82A5.89,5.89,0,0,1,43,521.56a2.32,2.32,0,0,1-.43-2,4.82,4.82,0,0,0,.14,3.14,4.5,4.5,0,0,0,1.51,1.53,11.32,11.32,0,0,0,2.09,1.13,4.22,4.22,0,0,0,1.36.37,1.85,1.85,0,0,0,1.31-.38,1.73,1.73,0,0,0,.49-1c.14-.73.29-2.11-.52-2.57A1.67,1.67,0,0,1,47,523.86Z" transform="translate(354.4 300.38)" opacity="0.6" style="mix-blend-mode:soft-light"/><path d="M147.16,713.28a4.44,4.44,0,0,1,2.54-3,4.51,4.51,0,0,0-3.66.63c-1.56,1.13-1.82,3.07-1.78,4.8,0,.85.88,5.53,3,4.57C148.12,719.89,146.87,714.35,147.16,713.28Z" transform="translate(354.4 300.38)" opacity="0.6" style="mix-blend-mode:soft-light"/><path d="M114.29,771.24a7,7,0,0,0-5.21,3.25,6.3,6.3,0,0,0-.62,5c.48,1.58,1.5,2.18,2,.27.4-1.55.18-3.06.85-4.6C111.65,774.36,113.11,771.37,114.29,771.24Z" transform="translate(354.4 300.38)" opacity="0.6" style="mix-blend-mode:soft-light"/><path d="M46.11,780.27a9.35,9.35,0,0,0-4,2.06,16.13,16.13,0,0,0-4.43,4.27c-.35.6-1.22,2-.5,2.54.55.41,2.31-.22,2.82-.53,1.28-.78,1.41-2.11,2-3.27A14.3,14.3,0,0,1,46.11,780.27Z" transform="translate(354.4 300.38)" opacity="0.6" style="mix-blend-mode:soft-light"/><ellipse cx="1471.44" cy="665.79" rx="44.71" ry="37.72" fill="url(#k)"/><path d="M1181.47,331.66c-2.5-.26-4.89.8-7.09,1.83-30.53,14.31-61.06,28.61-91.3,43.35-7.09,3.46-14.31,7-19.7,12.24a41.84,41.84,0,0,0,15.81-4.69A114.47,114.47,0,0,1,1030.12,401c8.31-7.13,18.28-12.71,28.17-18.24,43-24,86.57-48.29,135.27-62.6,1.38-.4,3.54-.39,3.6.84a1.88,1.88,0,0,1-.68,1.24,143.94,143.94,0,0,1-36.87,28C1166.75,343.93,1174.79,338.36,1181.47,331.66Z" transform="translate(354.4 300.38)" fill="#e07061" opacity="0.7" style="mix-blend-mode:color-dodge"/><g clip-path="url(#l)"><path d="M1155,363.72c-6.07,1.32-10.59,5.52-16,8.14a13.88,13.88,0,0,1-7.29,1.61c-2.21-.24-4.2-1.29-6.4-1.6s-4.64.16-7,.15a15,15,0,0,1-9.64-3.48,10.66,10.66,0,0,1-3.81-8.24c-2.12-1.34-3.13-3.57-3.94-5.69-.88-2.34-1.66-4.82-1-7.21a6.06,6.06,0,0,1,6.1-4.33c1.2.11,2.65.54,3.46-.22s.34-1.63-.22-2.34-1.31-1.35-1.44-2.19a3.35,3.35,0,0,1,.47-1.87c1.59-3.35,3.31-6.86,6.66-9.11a18.59,18.59,0,0,1,10.13-2.7,51.85,51.85,0,0,1,10.67,1.34,3.47,3.47,0,0,0-2.35,4.34c.71,1.78,3,2.94,3.39,4.8.31,1.69-1.2,3.26-2.93,4.15s-3.73,1.34-5.44,2.26a8.81,8.81,0,0,0-4.73,7.65,10.31,10.31,0,0,0,4.42,7.9,11.37,11.37,0,0,0,9,2.22,4.84,4.84,0,0,1,1.8-.24c1.77.29,1.75,2.51,3,3.61,1.09.95,3,.84,4.35.22a22.34,22.34,0,0,0,3.61-2.51c1.5-1.05,3.5-2.3,3-3.9-.41-1.34-2.32-1.82-3.91-2.13a11.3,11.3,0,0,1-4.64-1.71c-1.27-1-2-2.61-1.17-3.89s2.39-1.69,3-2.86c.56-1,.26-2.14.36-3.22.21-2.36,2.6-4.44,5.39-4.7s5.62,1.25,7.83,2.87c4.19,3.06,7.77,6.84,9.59,11.26a15.81,15.81,0,0,1,1.24,6.41c0,1.66-.21,5.24-1.76,6.49-1.39,1.12-4.31-.89-6-1.26A18.46,18.46,0,0,0,1155,363.72Z" transform="translate(354.4 300.38)" opacity="0.6" style="mix-blend-mode:soft-light"/><path d="M1148.53,390.5a5.51,5.51,0,0,0-4.59-2,8.28,8.28,0,0,0-4.85,1.82,3.56,3.56,0,0,1-2.13,1.08c-.78,0-1.42-.54-2.19-.64-2-.26-2.92,2.14-4.81,2.62-1.25.32-2.61-.28-3.9-.09-2.09.32-3,2.45-4.69,3.49a9.71,9.71,0,0,1-3.34,1l-3.36.59a20.49,20.49,0,0,1-7.18.41,9.49,9.49,0,0,1-3.9-1.62c1.16-.57,2.57.08,3.79.53s3.1.42,3.43-.67-1.37-1.86-2.72-2.13l-8.24-1.66a45.08,45.08,0,0,0-11.68-1.31A9.38,9.38,0,0,0,1092,400a21.37,21.37,0,0,0,5.63,2.82,79,79,0,0,0,27.82,4.78,48.1,48.1,0,0,0,13.73-1.84,23,23,0,0,0,11.06-6.91c1.45-1.78.37-2.11-.38-3.54S1149.57,392,1148.53,390.5Z" transform="translate(354.4 300.38)" opacity="0.6" style="mix-blend-mode:soft-light"/><path d="M1129.74,388.49c.93.14,2.21.09,2.42-.69a1.31,1.31,0,0,1,.12-.44c.25-.39.93-.17,1.45-.07a4.53,4.53,0,0,0,3.18-1c.28-.18.58-.38.63-.67a.84.84,0,0,0-.29-.7,3.69,3.69,0,0,0-3.15-1.09c-.72.09-1.39.38-2.1.51a10.71,10.71,0,0,1-2,.07,8,8,0,0,0-4.72,1c-.94.67-1.49,1.72-2.58,2.21s-2.85.46-3.29,1.48a1.41,1.41,0,0,0,.75,1.66,4.87,4.87,0,0,0,2.13.54,2.2,2.2,0,0,0,.81,0c.6-.16.89-.72,1.29-1.14A7.45,7.45,0,0,1,1129.74,388.49Z" transform="translate(354.4 300.38)" opacity="0.6" style="mix-blend-mode:soft-light"/><path d="M1080.27,386c.91-.36,1.87-1,1.82-1.85-.06-1.05-1.62-1.67-1.8-2.72a8.64,8.64,0,0,1,.12-1.32,3.33,3.33,0,0,0-.65-1.63l-2-3.19a5.34,5.34,0,0,1-.93-2.12,1.94,1.94,0,0,1,1-2,6.35,6.35,0,0,1,1.47-.38c2.53-.52,4.5-2.59,4.55-4.79a1.92,1.92,0,0,1,.11-.79c.23-.48.86-.69,1.42-.88,1.48-.51,3.07-1.5,2.92-2.84a3.57,3.57,0,0,0-.58-1.35,31.12,31.12,0,0,1-2.88-7.77,8,8,0,0,1-4.55.35,4,4,0,0,1-2.61-3.18,9.38,9.38,0,0,1,.57-4,1.91,1.91,0,0,0,.1-1.24,1.57,1.57,0,0,0-.88-.83,3.77,3.77,0,0,0-3.83.8,6.81,6.81,0,0,0-1.75,3.22c-1.62,5.32-2,10.85-2.37,16.34-.4,5.79-.79,11.64.29,17.37a2.25,2.25,0,0,1-.19,1.9c-.55.67-1.65,1-1.11,1.92.32.55,2.44,1,3.08,1.23A13.18,13.18,0,0,0,1080.27,386Z" transform="translate(354.4 300.38)" opacity="0.6" style="mix-blend-mode:soft-light"/></g><ellipse cx="1211.84" cy="326.3" rx="261.33" ry="220.5" fill="url(#m)"/><path d="M680.61,133.07c7.45-.9,15,.64,22.1,2.79,19.09,5.8,35.82,15.94,53.49,24.36a309.07,309.07,0,0,0,77.65,24.87c15.86,2.87,32.11,4.56,48.3,3.77,8.18-.4,16.76-1.59,23.15-5.92s9.55-12.69,4.91-18.4-17.65-4.65-19.05,2.17c2.11-4.82,11.91-3.87,14,.94S903,178,897.34,179.86c-6.57,2.16-14.72.2-19-4.56-5.75-6.47-3.46-16.24,3-22.2s16.06-8.76,25.46-10.32a131,131,0,0,1,65.83,6.12c13.44,5,25.84,12.21,40.13,15,16.15,3.19,33.89.15,47.28-8.11s22.21-21.6,23.51-35.55c-16.53,14.19-41.88,18.83-65.38,17.21s-45.92-8.67-68.32-14.89-45.73-11.74-69.23-10.11S833.22,124.25,823,142.17c-1.77,3.11-3.22,6.5-6.26,8.81s-7,3.12-10.92,3.41c-23.09,1.69-42.38-14.34-55.6-30.4s-25.44-34.52-46.71-42.28A60.73,60.73,0,0,0,663,81.62c-4.95,1.78-9.77,4.4-12.29,8.42s-2,9.63,2.29,12.37C650.34,95,662.42,88,670.52,91.68s9.24,14.17,3.47,20.22-16.24,7.82-25.18,6-16.56-6.76-23.21-12.13c5.12,4.13,7.77,16.56,10.91,22.17a111.58,111.58,0,0,0,15.38,21.8c8.45,9.12,8.26,5.12,10.3-3.34C664,138.87,671.92,134.11,680.61,133.07Z" transform="translate(354.4 300.38)" opacity="0.6" style="mix-blend-mode:soft-light"/><path d="M995.62,89.63c-56.7,3.41-113.08-8.9-169.91-10-10.06-.19-21.54.51-27.85,7.13-4.37-3.87-10.62-5.76-16.71-7.21C752,72.63,718.91,72,696.13,55.2c15.1-.35,29.1-6.3,43.52-10.12C755.9,40.78,773,39.15,790,38.61c44.34-1.4,88.5,4.45,132.33,10.28,22.57,3,45.21,6,67.15,11.39,9.3,2.28,37.63,8.46,39.1,18.56C1029.81,87.23,1002.34,89.22,995.62,89.63Z" transform="translate(354.4 300.38)" opacity="0.6" style="mix-blend-mode:soft-light"/><path d="M898.45,220.89a71.11,71.11,0,0,1-26.85-.1c-2.62-.52-5.87-2.36-4.64-4.39a4.18,4.18,0,0,1,2.72-1.48,16.15,16.15,0,0,1,9.24.74c-1-3.69-5.72-6.35-10.17-5.8s-8,4.26-7.73,8c-6.42-4-14.91-5-22.9-4.48s-15.72,2.51-23.58,3.83c-26,4.39-54.82,1.26-75.91-12.37-2.31-1.49-4.58-3.13-7.32-4a37.06,37.06,0,0,0-7.25-1A59.09,59.09,0,0,1,703.31,194a136.65,136.65,0,0,0,52.53,29,2.65,2.65,0,0,1-.78-3.87,292.32,292.32,0,0,0,77.52,7.92c13.81-.44,28.09-1.79,41.08,2.19,9,2.77,17.61,8.12,27.17,7.24,4.19-.39,8.07-2,12-3.16,10.56-3.21,23.85-4,32-11.16-9.35,3.73-12.38,3.46-19.56-2C917.8,214.46,907.1,219.24,898.45,220.89Z" transform="translate(354.4 300.38)" opacity="0.6" style="mix-blend-mode:soft-light"/><ellipse cx="862.42" cy="982.58" rx="77.92" ry="65.75" fill="url(#n)"/><g clip-path="url(#o)"><path d="M454.22,664.19a451.62,451.62,0,0,0,47.12-.43c12.72-.78,27.69-3.48,32.56-13.43,10.05.49,20.25-3.37,26.5-10a23.8,23.8,0,0,0,5.52-24,15.83,15.83,0,0,0-8.73-9.79,24.76,24.76,0,0,0-8.4-1.39c-7.43-.22-15.23.69-21.31,4.3s-9.88,10.45-7.42,16.37,12.34,9.12,18,5c-1,4.18-5.78,7.1-10.73,7.92s-10.05,0-15-.88a13.34,13.34,0,0,1-5.27-1.68,4.8,4.8,0,0,1,1-8.29c-3.91-.81-4.91-5.35-3.42-8.52s4.5-5.68,6-8.84c.89-1.9,1.19-4,2.08-5.85,2.19-4.68,7.66-7.74,13.29-9.42,18.09-5.39,40.24,2,49,16.42s3,33.91-12.67,43.19c-3.3,1.94-7,3.51-9.68,6-2.13,2-3.5,4.52-5.44,6.67-4.22,4.67-10.91,7.34-17.69,8.64-11.78,2.27-24.06.9-36-.62s-24.12-3.18-36-1.47-23.73,7.47-28.35,16.88.73,22.27,12.39,24.9c-9.2-5.67-6-19.44,4.08-23.87s23.15-.87,31,6.06a27.6,27.6,0,0,0-23.12-1.28c-7.27,3-12.4,9.38-13,16.18-.35,4,.69,8.19-1.23,11.84-2.64,5-10.32,7.06-16.6,5.67s-11.28-5.42-15.19-9.8c-9.13-10.23-19.65-31.51-9.78-43.69C409.53,662.41,436.31,663.42,454.22,664.19Z" transform="translate(354.4 300.38)" opacity="0.6" style="mix-blend-mode:soft-light"/><path d="M467,715.34c10.25-4.6,22.17-5.7,33.77-6.1s23.36-.21,34.64-2.54c27.79-5.74,49.53-28.05,50.82-52.17a68.85,68.85,0,0,1,12.86,24.76c.41,1.51.75,3.18-.12,4.55s-3.48,1.95-4.54.68l-.74,3.28-2.88-1.5c-4.39,7.76-10.15,15.18-18.26,20.37s-18.9,7.9-28.74,5.67c-1.77,3.94-7.89,5.1-12.8,4.29s-9.44-3-14.42-3.35c-6.93-.56-13.69,2.36-20.65,2.22a41.78,41.78,0,0,1,8.23,6.49c-9.65-5.24-23.48-4.13-31.78,2.57a12.34,12.34,0,0,0-4.22,5.47c-1.37,4.25,1.54,8.9,5.94,11.26s9.94,2.75,15.1,2.15c4.63-.53,9.64-2.17,11.53-5.77s-2-8.87-6.42-7.65c-2.14.59-3.49,2.34-4.65,4a2.43,2.43,0,0,0,2.26,2.58c-3.3,1.72-8.31-1.18-7.6-4.39s5.39-4.61,9.28-5.29L504.7,725c5.13-.9,10.42-1.81,15.59-1.08s10.31,3.46,11.84,7.69-2,9.62-7.23,9.72c7.08-.57,13.54-4.86,15.87-10.52.9-2.2.36-5.52-2.39-5.64,4.23-1.31,8.83,2.23,9.32,6s-1.86,7.38-4.44,10.5a41.2,41.2,0,0,1-11.77,10.15c-7.81,4.26-17.52,5.27-26.81,5a103.31,103.31,0,0,1-48.29-13.89c-6.77-4-9.11-6.26-5.6-13.21C453.9,723.48,460.07,718.45,467,715.34Z" transform="translate(354.4 300.38)" opacity="0.6" style="mix-blend-mode:soft-light"/><path d="M468.1,629.89l-5.43,3.51a17.64,17.64,0,0,0-3.64,2.83,14,14,0,0,0-2.65,5.84c-.5,1.83-1,3.75-.45,5.57,1.25,4.14,7.52,5.87,12.43,4.81,1.37,2.55,4.82,4,8.13,4a15.93,15.93,0,0,0,9-3.2,8.51,8.51,0,0,0,3.28-3.83,3.64,3.64,0,0,0-1.45-4.33,6.1,6.1,0,0,0,3.34-5.87A6.63,6.63,0,0,0,486,634a14.2,14.2,0,0,0-6.33-.29,12.16,12.16,0,0,0-3.26.8c-2.92,1.29-4.16,4.73-2.6,7.18a5.8,5.8,0,0,0,5.09,0,2.1,2.1,0,0,1-2.36-1.25c.19-1.16,1.83-1.88,3.17-1.58a3.8,3.8,0,0,1,2.71,2.45,3.85,3.85,0,0,1-1.23,4.35c-1.66,1.3-4.19,1.3-6.46,1.21l-3.57-.13c-2.84-.11-6.16-.45-7.58-2.53a4.25,4.25,0,0,1,.41-4.84,15.9,15.9,0,0,1,4.22-3.59l4.54-3c2.83-1.9,5.75-3.83,9.22-4.7s7.29-.41,9.92,1.74C489.06,619.12,474.34,625.85,468.1,629.89Z" transform="translate(354.4 300.38)" opacity="0.6" style="mix-blend-mode:soft-light"/></g></g><g clip-path="url(#p)"><path d="M1348,668.45c65-79.54,90.61-169.81,86.85-258.6-1.68-39.64-9.23-79.66-32.34-116.64-40.23-64.37-128.73-122.47-227.58-155.28S976.15,78.45,864.55,69.54c-176.09-14.06-380,9.72-517.29,79.21C291.54,177,248.58,214.56,224.43,256.28c-25.68,44.35-29.43,94.89,2.69,137.49s104.07,75,180.72,73.34,149.38-42.69,147.37-89.68c31.72,32.37,4.3,80.64-53.44,94.11-22,5.12-46.57,5.76-67.17,12.69-16.54,5.57-29.08,14.74-44.79,21.14-56.23,22.92-145.53-4.5-149-45.75-.53-6.26.44-12.9-4.34-18.43-16.63-19.24-64.64-1.13-99.82-4.33-36.35-3.3-52.58-29.56-57.74-51.87C68.21,338.8,74.45,291.12,97,246.48,49.14,265.61,22,300,12.86,334.53s-2.35,69.81,4.4,104.52c-44.87-36.34-63.94-84.29-51.44-129.34-62.29,119.3-35.68,248.66,6,371,7.55,22.21,15.63,44.89,10.87,67.41s-25.13,45.29-59.43,53.93c-65.9,16.59-131-25.18-160.44-64.8-38.64-52-57.84-108.56-72.93-165a1293.38,1293.38,0,0,1-44-305.61c-1.76-79.15,4.16-159.37,41.31-235.27s108.28-147.81,215.4-192.28C-14.55-195.25,84.25-211.4,181-227c174.84-28.17,350.5-56.43,530.18-68s365-5.93,534.26,32.25c72.5,16.35,161.4,37,219.81,5.81,16.94-9.06,29.72-22.07,51-26.37,22.94-4.63,47.26,2.49,68.53,9.42l195.13,63.53c32.32,10.52,66.21,21.94,84.94,41.21,31.47,32.38,14.39,80.94,62.94,104.06-13.94,16.83,39.52,14.76,8.82,15.7-17.83,161.33,9.67,304.82-95.95,495.87-38.63,69.88-108.74,131.79-188,187.42-166.26,116.72-389.55,217-647.93,231.31C1153.08,835.28,1279.6,752.09,1348,668.45Z" transform="translate(354.4 300.38)" fill="url(#q)"/><path d="M1499.07,642.69c-12.79,12-29.66,21.92-46.38,31.77C1383.73,715.1,1332,731.4,1263,772c73.86-51.49,119.48-84.86,167.11-147.38,68.94-90.5,123.14-194.19,96.47-293.11-1.78-6.56-4.07-13.27-9.9-18.83-8-7.66-22-12.41-29-20.46-6.5-7.47-5.9-16.45-6.33-25-3.54-70-85.61-128.11-171.24-172.91A1617.64,1617.64,0,0,0,1104.86,5.06c95.92,41.8,194,85,260,145.51C1282.37,100.73,1177.09,66,1065,51.62c-42.73-5.48-92.26-10.4-114.7-33.9-7.15-7.49-10.64-16.2-18.13-23.56-22.74-22.32-73.13-24.92-114.69-20.38S733.2-12.45,692.68-19.83c-21.6-3.94-40.34-12.3-59.95-19.23-48.85-17.26-105.19-26-161.21-25.11,148-18.33,286.37-59.93,433.43-81,103.38-14.79,209.69-19.22,315.48-23.61,69.22-2.88,139.11-5.73,207.67.95-65.5,12.51-126.53,34.18-177.37,63A1600.16,1600.16,0,0,1,1437.54,10.78C1535.24,81.3,1621.08,165,1628.7,258.41c7,9.72,5.82,21.58-3,30.7-4.64-32.43-18.33-64.33-40.27-93.82-20,18.47-4.53,43.05,2.93,64.9,5.78,16.94,6.23,34.39,6.65,51.7q1.92,78.38,3.83,156.73c39.71-53.76,49.3-116.08,26.73-173.62,25.9,35.2,52.32,74.71,33,111.54-7.72,14.71-22.49,28-25.76,43.4-2.8,13.14,3.15,26.44,2.09,39.68-2.23,27.9-29.71,67.47-55.82,90.31-9.25,8.09-21.62,14.3-32.72,21.31C1534.73,608.57,1497.65,631.52,1499.07,642.69Z" transform="translate(354.4 300.38)" fill="url(#r)"/><path d="M1871.93,276.37c-.74,22.91-8.83,45.44-16.89,67.79-6.94,19.26-13.9,38.57-24.23,57.21a179.49,179.49,0,0,1-58.54,63.75c43.42-100.72,34.43-207,25.1-311.24-3.52-39.4-7.53-80-35.09-115.48-4.49-5.78-9.65-11.5-11.46-17.83-2.78-9.75,2.68-19.6,8-28.91l19.08-33c3.46-6,7-12.42,4.66-18.63-3.14-8.4-15.69-13.77-25.49-19.81-22.58-13.93-33.23-34.4-57.29-47.31-39.42-21.17-98.87-15-148.69-5.94,25.82,15.77,57.92,27.44,92.55,33.65,17.78,3.18,37.12,5.25,50.81,13.06l-37.36,20.55c-4.25,2.34-8.76,4.94-9.8,8.43-1.67,5.52,5.79,10.26,12.15,14.21,40.49,25.13,60,60.55,73.4,95.31,21.73,56.27,30.95,114.43,27.33,172.29,1.82-41.19-14.81-81.76-33.16-121.31C1693,29.67,1645.83-48.16,1543-89.11c-7.58-3-15.69-6-20.39-10.78-8.89-9.08-2.45-20.78-3.89-31.4-1.38-10.13-10.19-19.94-7.38-30,3-10.54,18.07-18.06,33.6-22.44,43.92-12.39,94.71-7.21,142.08-1.8,37.71,4.31,76.07,8.76,110.11,19.82,45.44,14.78,79.49,40.08,112.3,64.75,8,6,16.28,12.4,18.39,20.12,1.68,6.14-.77,12.38-2.17,18.54-3.4,15-.61,30.16,1.52,45.21,7.57,53.34,21.37,125.68-11.22,176.61-9.94,15.54-33.06,24.7-43.07,39.73C1857.74,222,1872.7,252.47,1871.93,276.37Z" transform="translate(354.4 300.38)" fill="url(#s)"/><path d="M1775,406.36c.48,10.43-10.06,19.54-21.93,22.87s-24.77,2.17-37.12.7c-148.53-17.64-289.54-74.84-397.56-161.28,14.44-10.61,30.58-21.8,49.71-22.25-33.62-7.13-71.84,3.3-94.24,25.71l-9.61,11.67a946.3,946.3,0,0,0,156.52,77.09c46.3,17.78,94.36,32.22,141.14,49.11,81.36,29.36,166.17,67,253.86,54l-56.13-12.57,45.29-7.87c3.88-.67,8.24-1.63,10.18-4.53s-1.64-7.59-5.11-6c57.29,6.49,116.8-.34,170.17-19.53-9.36,3.36-75.44-129.12-95.55-75.37-6.39,17.09,4.13,35.42-8.88,52.37C1854,418.81,1808,412.09,1775,406.36Z" transform="translate(354.4 300.38)" fill="#fffad7"/><path d="M1242.74,836c-2.47,3.27-9.59,3.83-11.06.15-2.7,1.19-6.18.32-8.4-1.44a15.64,15.64,0,0,1-4.43-6.66,62.94,62.94,0,0,1,1.72-51.51c2.46,1.11,5.88-1.2,5.15-3.46-.81-2.53-5.45-2.93-7.53-1s-1.83,5.07-.32,7.35c-5.32.71-7.6,6-8.42,10.54a77.4,77.4,0,0,0,5.91,46.1c1.09,2.37,3,5.11,6,5l.15-2.58c.7,2.44,1.6,5.11,4.1,6.46s6.87,0,6.41-2.53c6,3.53,15.13,2.53,19.87-2.18,3.14-3.12,6.17-15-.74-16.78C1242.87,821.24,1244.83,833.21,1242.74,836Z" transform="translate(354.4 300.38)" fill="#fffad7"/><path d="M1602.55,684.8a29.74,29.74,0,0,1-10.15,3.47,81.47,81.47,0,0,1-25.44.78c-4-.51-7.85-1.32-11.91-1.4-5.19-.1-10.36,1-15.56,1.41-10,.77-19.88-1.11-29.09-3.55-20.7-5.49-39.6-13.94-55.31-24.74,12.14,10.15,24.73,20.55,41.73,26.37,10.68,3.66,22.6,5.33,34.38,7l51.91,7.21c8.2,1.14,16.77,2.27,25,.63s16.07-7,15.7-12.92c-.2-3.11-2.52-6-2.35-9.09.11-2.13,1.38-4.19,2.37-6.25,3.67-7.6,5.29-13.93,1.69-21.24-7.37,4.88-19.58,12.8-19.58,12.8S1611.67,679.5,1602.55,684.8Z" transform="translate(354.4 300.38)" fill="#fffad7"/><path d="M1373.18,591c-.87-2.07-1.61-4.34-.51-6.41s4.83-3.59,7.21-2.35c-12.37-6.31-11.81-22.22,1-29,9-4.71,22.92-3.6,33.53-2.53,3.13-8.6,4.85-14.71,6.78-21.49-18.49.62-37.44,7.95-49.38,18.7-2.3,2.07-4.53,4.36-7.84,5.45-1.79.59-3.82.79-5.46,1.6a6.82,6.82,0,0,0-3.67,6.28c-.13,6.34,4.64,12.45,12.08,15.44-4.22,4.66-3,10.71-.63,15.8,8.9,19.19,30.61,33.17,52.3,45.49-9.79-5.56-16.82-16.22-26-22.65A54,54,0,0,1,1373.18,591Z" transform="translate(354.4 300.38)" fill="#fffad7"/><path d="M1421.46,651.66l6,1.34a47,47,0,0,0-9.1-9.66,6.58,6.58,0,0,0-2.26-1.34c-.66-.21-1.41-.26-2.09-.44a10.07,10.07,0,0,1-2-.81c-1.75-.85-10.78-6.53-12.92-5.73s.33,3.27,1.08,4.25C1404.7,645.36,1412.13,649.58,1421.46,651.66Z" transform="translate(354.4 300.38)" fill="#fffad7"/><path d="M191,301.38c-8.66,30.62-10,63.94,14.69,90.89a380.34,380.34,0,0,1-60-20.34c-9.6-4.21-19.22-9.1-23.51-15.94-6.36-10.14.68-21.66,10.18-30.77s21.68-17.41,27.11-27.76c3.23-6.16,3.73-13.23-1.35-18.88-4.67-5.18-13.47-8.62-17.32-14.06-6.68-9.44,4.32-20.2,17.16-26.65s28.56-11.38,36.6-20.39c1.78-2,3-4.64.75-6.41-1.93-1.5-5.44-1.62-8.49-1.55A190,190,0,0,0,151,213.78l14.68-12.54C108.56,213.8,54.15,231.32,4.52,253.12q75.71-58.5,155.13-115c5.34-3.81,10.92-7.71,18.26-9.84,9.64-2.79,20.75-2.11,31.36-2.34,35-.77,68.85-12.88,87.77-31.39,6.85-6.69,12.11-14.34,22.06-19.26,7.66-3.78,17.31-5.53,26.69-7.19L583.38,25.92C500,41.26,419.86,63.68,345.92,92.37l96.73-8.21c15.44-1.31,31-2.64,45.64-6,12.84-2.93,24.66-7.34,36.95-11.09,58.75-17.93,126-20.25,191.27-22.26C667,46.36,609.38,62.32,562.5,72c-49.27,10.21-97,22.8-145.69,33.92-78.6,18-139.79,61.93-178,107.49C215.72,241,199.64,270.78,191,301.38Z" transform="translate(354.4 300.38)" fill="url(#t)"/><path d="M1086.36,888.55a5.85,5.85,0,0,0,2.17,1.62,6.49,6.49,0,0,0,3.13.05c19.83-3.14,36.84-14.46,48.61-28.29a4,4,0,0,0,1-1.67,3.31,3.31,0,0,0-.39-2,18,18,0,0,0-3-4.7c-4.46,6.19-11.87,10.69-20,12.89a33.24,33.24,0,0,1-16.06.69c-5.25-1.23-10-4.38-11.86-8.69q-5.76,4.54-11.24,9.36-2.54,2.24-5,4.51c-1.27,1.18-4.69,3.37-5.12,4.9-.7,2.44,6.33,3.26,8.59,4.4A35.3,35.3,0,0,1,1086.36,888.55Z" transform="translate(354.4 300.38)" fill="#ec4963"/><path d="M1054,822.62a4.43,4.43,0,0,1,.17-2.45,5.23,5.23,0,0,1,2.18-1.9c16.64-9.61,38.16-11.77,58.06-9a5.76,5.76,0,0,1,2.12.59,4,4,0,0,1,1.4,1.64,16.36,16.36,0,0,1,1.8,5.13,42.41,42.41,0,0,0-25,2.86c-4.84,2.1-9.26,5.11-11.94,9.1s-3.4,9.07-1.08,13.22q-7.9.22-15.8.1c-2.44,0-4.89-.11-7.33-.2-1.88-.07-6.13.42-7.72-.41-2.54-1.31,1.74-6.08,2.38-8.24A26.15,26.15,0,0,0,1054,822.62Z" transform="translate(354.4 300.38)" fill="#ec4963"/><path d="M1081.68,835.69c4-.08,7.9-.15,11.63-.24l5,10.27s.18-.05,0,0l5,10.26c-2.7,2.18-5.51,4.45-8.42,6.78-19.9,16-44.21,34.62-69.2,41.42-20.37,5.56-44.94,4.44-62.47,2.06-13.19-1.79-22.4-4.29-22.86-5.23a.14.14,0,0,1,0-.07c-.74-.57,3.69-8,11.73-17.39C962.56,871.42,979,856,998,847.72,1021.4,837.62,1054.22,836.29,1081.68,835.69Z" transform="translate(354.4 300.38)" fill="#d4dfe1"/><path d="M1081.68,835.69c4-.08,7.9-.15,11.63-.24l5,10.27s.18-.05,0,0l5,10.26c-2.7,2.18-5.51,4.45-8.42,6.78Z" transform="translate(354.4 300.38)" fill="#88959d"/><path d="M952.16,883.56l11.15,22.69c-13.19-1.79-22.4-4.29-22.86-5.23a.14.14,0,0,1,0-.07C939.69,900.38,944.12,893,952.16,883.56Z" transform="translate(354.4 300.38)" fill="#ec4963"/><path d="M987.65,866.77c9.82-3.43,21.07.5,25.13,8.78s-.59,17.77-10.4,21.2-21.06-.49-25.13-8.77S977.84,870.21,987.65,866.77Z" transform="translate(354.4 300.38)" fill="#88959d"/><ellipse cx="1349.42" cy="1182.14" rx="13.86" ry="11.69" fill="#62c7cd"/><path d="M1035,853.67c7.88-2.76,16.92.4,20.19,7.05s-.48,14.27-8.36,17-16.91-.4-20.18-7S1027.12,856.43,1035,853.67Z" transform="translate(354.4 300.38)" fill="#88959d"/><path d="M1036.66,857c5.67-2,12.19.29,14.54,5.08s-.34,10.29-6,12.28-12.19-.29-14.55-5.08S1031,859,1036.66,857Z" transform="translate(354.4 300.38)" fill="#62c7cd"/><path d="M1003.81,853.51c2.52-.11,5.12.13,7.51-.55,4.44-1.26,7.72-5.52,12.37-5.09,2.55.24,4.77,1.93,7.34,1.82,2-.08,3.68-1.24,5.6-1.74,2.71-.7,5.63,0,8.46-.09a38.33,38.33,0,0,0,6.81-1.08,112.27,112.27,0,0,1,44.58-.36l-3.88-7.89c-10.74.51-21.46.78-32.2,1.29-13.81.67-27.71,1.34-41.14,4.09s-26.54,7.75-36.34,16C989.86,857.53,996.05,853.86,1003.81,853.51Z" transform="translate(354.4 300.38)" style="mix-blend-mode:soft-light"/><path d="M975.5,904.56a7.63,7.63,0,0,0,2,0,3,3,0,0,0,2.37-2,2.49,2.49,0,0,0-1-2.68,6.06,6.06,0,0,0-4.68-.52,26,26,0,0,1-4.77.95,31.9,31.9,0,0,1-4.92-.72,26.75,26.75,0,0,0-4.82,0l-9,.48c-.56,0-3.24-.13-3.49.32-.46.81,1.62,1,2,1.09q8.42,1.43,16.94,2.32C969.2,904.06,972.35,904.33,975.5,904.56Z" transform="translate(354.4 300.38)" fill="#fff" style="mix-blend-mode:soft-light"/><path d="M948.8,891c2.42-1.67,4.84-3.33,7.41-4.83,1.14-.66,2.3-1.28,3.36-2a19.55,19.55,0,0,0,2.78-2.41,7.24,7.24,0,0,0,2.28-3.93c.06-.5-.1-1.15-.69-1.25a1.56,1.56,0,0,0-1.19.49c-2.94,2.51-5.91,5-8.84,7.51a19.63,19.63,0,0,0-2.32,2.52c-.51.62-1.06,1.21-1.53,1.85C949.83,889.2,949.12,890.84,948.8,891Z" transform="translate(354.4 300.38)" style="mix-blend-mode:soft-light"/><path d="M1044.7,843l31,.14c5.87,0,11.53.57,17.33,1,.08-6.57-7.27-4.55-12.65-4.17-7.65.53-15.31,1.1-23,1.78C1053.3,842.15,1048.86,843.06,1044.7,843Z" transform="translate(354.4 300.38)" style="mix-blend-mode:soft-light"/><path d="M984.29,883.61a7.37,7.37,0,0,1,2.19.24A104.7,104.7,0,0,1,1001.6,888a5.26,5.26,0,0,1,1.56.81,1.47,1.47,0,0,1,.58,1.41,12.47,12.47,0,0,0,3.53-11.65c-.81,1.14-1.82,2.4-3.37,2.59a6.43,6.43,0,0,1-1.64-.08l-2.51-.34c-.88-.12-1.75-.24-2.62-.41a44.73,44.73,0,0,1-8.46-2.83,5.22,5.22,0,0,1-1.44-.77,1.32,1.32,0,0,1-.53-1.32,1.61,1.61,0,0,1,1.27-1,5.38,5.38,0,0,1,1.79,0,76.51,76.51,0,0,1,13.68,2.71c.79.24,1.72.64,1.76,1.35a11.45,11.45,0,0,1,1.82-.91,7.91,7.91,0,0,0-2.66-3.37,1.35,1.35,0,0,0-.47-.26,2.21,2.21,0,0,0-.63,0,11.46,11.46,0,0,1-2.8-.26l-9.74-1.75a6.19,6.19,0,0,0-1.72-.14,4.69,4.69,0,0,0-2.26,1.06c-3.41,2.63-5.88,7.79-4.13,11.65A2.56,2.56,0,0,1,984.29,883.61Z" transform="translate(354.4 300.38)" fill="#fff" style="mix-blend-mode:soft-light"/><path d="M1032.87,865.41a7.53,7.53,0,0,1,2.17.06l4.53.56a18.82,18.82,0,0,1,5.69,1.3c1.73.81,3.14,2.31,3.09,4a6.84,6.84,0,0,0,2.65-5.67,9.35,9.35,0,0,0-2.64-5.77,1.48,1.48,0,0,1-.43,1.53,4.57,4.57,0,0,1-1.59.93,12.71,12.71,0,0,1-5.32.78,5,5,0,0,1-2.28-.59,1.69,1.69,0,0,1-.93-1.76,1.86,1.86,0,0,1,.59-.86,5,5,0,0,1,2.67-1,14.85,14.85,0,0,1,3,0,3.64,3.64,0,0,0-2.31-1.37,6.6,6.6,0,0,0-2.08,0c-3.75.59-7.05,3-8.2,6.07a3.78,3.78,0,0,0-.26,2.73A2.58,2.58,0,0,1,1032.87,865.41Z" transform="translate(354.4 300.38)" fill="#fff" style="mix-blend-mode:soft-light"/><path d="M985.77,882.69l3.87.88a83,83,0,0,1,12.71,3.58,3.49,3.49,0,0,1,1.74,1.15,2.45,2.45,0,0,0,1.24-1.47,6.07,6.07,0,0,0,.19-1.85,8.15,8.15,0,0,1-5.25-.09c-1.69-.51-3.27-1.27-5-1.69-1-.25-2.09-.38-3.14-.56-1.28-.22-2.55-.52-3.81-.82a8.1,8.1,0,0,1-4.08-1.82s-.56,1.17-.59,1.29c-.12.37-.36,1-.16,1.38A4.3,4.3,0,0,1,985.77,882.69Z" transform="translate(354.4 300.38)" fill="#fff" style="mix-blend-mode:soft-light"/><path d="M1042.32,865.55a16.7,16.7,0,0,1,4.06,1,4.45,4.45,0,0,1,2.63,2.68,4.91,4.91,0,0,0,.73-4.4,8.08,8.08,0,0,1-3.41.32c-1.12-.07-2.25-.18-3.37-.32-3.51-.46-7.11-1.27-10.57-.58a2.24,2.24,0,0,0,1.92.41,7.89,7.89,0,0,1,1.8-.25c.57,0,1.17.23,1.73.33Z" transform="translate(354.4 300.38)" fill="#fff" style="mix-blend-mode:soft-light"/><path d="M1066.92,831.17a23.87,23.87,0,0,1-10.63-4.85,26.48,26.48,0,0,1-2.46,9.22,16,16,0,0,0,3.59-.08c3.66-.36,7.34-.58,11-.68s7.39.25,11,.05c.52-2.61-1.7-2.54-4.09-2.66A51.61,51.61,0,0,1,1066.92,831.17Z" transform="translate(354.4 300.38)" style="mix-blend-mode:soft-light"/><path d="M1056.12,834.87c.28-1,.55-2.08.83-3.12l15,1.87c.2,0-.78.48-.93.49A18.15,18.15,0,0,1,1069,834c-1.43,0-2.85,0-4.27.06A84.71,84.71,0,0,0,1056.12,834.87Z" transform="translate(354.4 300.38)" style="mix-blend-mode:soft-light"/><path d="M1088.31,874.73a16.81,16.81,0,0,0-3.43,9.77,37.65,37.65,0,0,0-9.47-5,12.17,12.17,0,0,1,2.6-2.09q4.34-2.91,8.36-6.1c2.65-2.11,5-4.59,7.73-6.6,2.56,1.53.92,2.81-.67,4.32A39.55,39.55,0,0,0,1088.31,874.73Z" transform="translate(354.4 300.38)" style="mix-blend-mode:soft-light"/><path d="M1077.59,878.56l3.19,1.71,9-10.29c.12-.14-.95.13-1.06.21a15.74,15.74,0,0,0-1.42,1.29c-1,.86-2,1.7-3.06,2.5A71.25,71.25,0,0,1,1077.59,878.56Z" transform="translate(354.4 300.38)" style="mix-blend-mode:soft-light"/><polygon points="1483.03 1133.63 1484.23 1136.08 1416.35 1159.82 1415.15 1157.37 1483.03 1133.63" fill="#ec4963"/></g></g></svg>